<svg xmlns="http://www.w3.org/2000/svg" viewBox="0 0 99.55 31.35"><defs><style>.cls-1{fill:#004ea2;}.cls-2{fill:#ed6c00;}</style></defs><title>アセット 1</title><g id="レイヤー_2" data-name="レイヤー 2"><g id="B"><polygon class="cls-1" points="62.67 31.35 73.64 31.35 79.17 0 68.19 0 62.67 31.35"/><path class="cls-1" d="M46.14,18.37a2.33,2.33,0,0,1-2.21,1.88H34.85l-1.93,11h11a13.66,13.66,0,0,0,12.89-11L60.35,0h-11Z"/><polygon class="cls-1" points="99.55 0 87.01 0 76.41 15.67 76.41 15.67 76.41 15.67 76.41 15.67 76.41 15.67 81.48 31.34 94.02 31.34 88.92 15.67 99.55 0"/><polygon class="cls-1" points="22.12 21.26 40.77 0 28.23 0 18.4 11.21 12.52 0 0 0 11.15 21.27 9.37 31.35 20.34 31.35 20.34 31.35 20.35 31.35 20.35 31.32 22.12 21.26"/><polygon class="cls-2" points="49.38 0 60.35 0 58.42 10.97 47.45 10.97 49.38 0"/></g></g></svg>